<svg width="270" height="87" viewBox="0 0 270 87" fill="none" xmlns="http://www.w3.org/2000/svg">
<path d="M0 57C0 29.3858 22.3858 7 50 7H270V37C270 64.6142 247.614 87 220 87H0V57Z" fill="#CEEBFB"/>
<g clip-path="url(#clip0)">
<path fill-rule="evenodd" clip-rule="evenodd" d="M177.61 26.7301L175.03 16.41C175.381 16.3356 175.695 16.143 175.921 15.8645C176.147 15.586 176.27 15.2385 176.27 14.88V13.2201C176.267 11.4837 175.576 9.81922 174.349 8.59143C173.121 7.36364 171.456 6.67269 169.72 6.67004H157.97V3.2301C157.969 2.37643 157.629 1.55798 157.026 0.954346C156.422 0.350708 155.604 0.0110683 154.75 0.0100098H94.8799C94.0253 0.0107959 93.2057 0.35008 92.6004 0.953491C91.9951 1.5569 91.6534 2.37543 91.65 3.2301V31.52C91.65 31.9338 91.8143 32.3306 92.1069 32.6232C92.3994 32.9157 92.7963 33.0801 93.21 33.0801C93.6238 33.0801 94.0205 32.9157 94.313 32.6232C94.6056 32.3306 94.77 31.9338 94.77 31.52V3.2301C94.7725 3.2027 94.7852 3.1772 94.8056 3.15869C94.826 3.14018 94.8524 3.12989 94.8799 3.13H154.75C154.777 3.13 154.802 3.14055 154.821 3.1593C154.839 3.17806 154.85 3.20358 154.85 3.2301V31.52C154.85 31.9338 155.014 32.3306 155.307 32.6232C155.6 32.9157 155.996 33.0801 156.41 33.0801C156.824 33.0801 157.221 32.9157 157.513 32.6232C157.806 32.3306 157.97 31.9338 157.97 31.52V29.75H176.37C177.449 29.7512 178.5 30.0945 179.371 30.7306C180.243 31.3667 180.89 32.2628 181.22 33.29H176.37C175.956 33.2906 175.56 33.4551 175.268 33.7476C174.975 34.04 174.811 34.4365 174.81 34.8501V38.1801C174.812 39.4753 175.329 40.7166 176.246 41.6316C177.162 42.5465 178.405 43.0603 179.7 43.0601H181.47V49.9301H177.39C176.721 47.9861 175.462 46.2995 173.789 45.1055C172.115 43.9115 170.111 43.2697 168.055 43.2697C165.999 43.2697 163.995 43.9115 162.321 45.1055C160.648 46.2995 159.389 47.9861 158.72 49.9301H157.97V38.1801C157.97 37.7663 157.806 37.3696 157.513 37.077C157.221 36.7845 156.824 36.6201 156.41 36.6201C155.996 36.6201 155.6 36.7845 155.307 37.077C155.014 37.3696 154.85 37.7663 154.85 38.1801V49.9301H122.5C121.832 47.9863 120.574 46.2997 118.902 45.1056C117.229 43.9115 115.225 43.2697 113.17 43.2697C111.115 43.2697 109.111 43.9115 107.438 45.1056C105.766 46.2997 104.508 47.9863 103.84 49.9301H94.8799C94.8509 49.9298 94.8231 49.9182 94.8026 49.8976C94.782 49.877 94.7702 49.8492 94.77 49.8201V46.39H101.53C101.735 46.39 101.938 46.3498 102.127 46.2714C102.316 46.193 102.488 46.078 102.633 45.9331C102.778 45.7882 102.893 45.6163 102.971 45.427C103.05 45.2377 103.09 45.0349 103.09 44.8301C103.09 44.6252 103.05 44.4223 102.971 44.233C102.893 44.0438 102.778 43.8718 102.633 43.7269C102.488 43.5821 102.316 43.4672 102.127 43.3888C101.938 43.3104 101.735 43.27 101.53 43.27H86.56C86.1463 43.27 85.7495 43.4344 85.457 43.7269C85.1644 44.0195 85.0001 44.4163 85.0001 44.8301C85.0001 45.2438 85.1644 45.6405 85.457 45.9331C85.7495 46.2257 86.1463 46.39 86.56 46.39H91.65V49.8201C91.6513 50.6763 91.992 51.4971 92.5975 52.1025C93.2029 52.708 94.0237 53.0487 94.8799 53.05H103.3V53.15C103.3 55.769 104.34 58.2808 106.192 60.1327C108.044 61.9846 110.556 63.025 113.175 63.025C115.794 63.025 118.306 61.9846 120.158 60.1327C122.01 58.2808 123.05 55.769 123.05 53.15C123.05 53.11 123.04 53.08 123.04 53.05H158.18V53.15C158.18 55.769 159.22 58.2808 161.072 60.1327C162.924 61.9846 165.436 63.025 168.055 63.025C170.674 63.025 173.186 61.9846 175.038 60.1327C176.89 58.2808 177.93 55.769 177.93 53.15V53.05H183.02C183.225 53.0506 183.428 53.0106 183.618 52.9324C183.807 52.8542 183.979 52.7393 184.124 52.5944C184.269 52.4494 184.384 52.2772 184.462 52.0876C184.541 51.8981 184.581 51.6951 184.58 51.4901V34.8501C184.578 32.8876 183.875 30.9905 182.596 29.5013C181.318 28.0122 179.55 27.0293 177.61 26.7301ZM157.97 9.79004H169.72C170.629 9.79163 171.501 10.1535 172.144 10.7964C172.787 11.4393 173.148 12.3109 173.15 13.2201V13.3201H157.97V9.79004ZM157.97 26.63V16.4401H171.83L174.37 26.63H157.97ZM113.17 59.91C111.833 59.91 110.526 59.5135 109.414 58.7708C108.303 58.028 107.436 56.9722 106.925 55.7369C106.413 54.5017 106.279 53.1426 106.54 51.8313C106.801 50.52 107.445 49.3154 108.39 48.37C109.335 47.4246 110.54 46.7807 111.851 46.5199C113.162 46.2591 114.522 46.393 115.757 46.9047C116.992 47.4163 118.048 48.2827 118.791 49.3944C119.534 50.5061 119.93 51.813 119.93 53.15C119.929 54.9426 119.216 56.6614 117.949 57.929C116.681 59.1965 114.963 59.909 113.17 59.91ZM168.06 59.91C166.723 59.912 165.415 59.5172 164.302 58.7756C163.189 58.034 162.321 56.979 161.807 55.7439C161.294 54.5088 161.159 53.1494 161.419 51.8374C161.678 50.5254 162.321 49.3199 163.266 48.3735C164.211 47.4271 165.416 46.7824 166.727 46.5208C168.039 46.2591 169.399 46.3923 170.635 46.9037C171.87 47.415 172.927 48.2814 173.67 49.3933C174.413 50.5052 174.81 51.8126 174.81 53.15C174.809 54.9408 174.098 56.6582 172.832 57.9254C171.567 59.1926 169.851 59.9063 168.06 59.91ZM181.47 39.9401H179.7C179.468 39.9407 179.239 39.8957 179.024 39.8076C178.81 39.7195 178.615 39.5901 178.451 39.4266C178.286 39.2632 178.156 39.069 178.066 38.8551C177.977 38.6412 177.931 38.4118 177.93 38.1801V36.41H181.47V39.9401ZM113.17 49.9301C112.533 49.9301 111.911 50.119 111.381 50.4728C110.852 50.8266 110.439 51.3295 110.195 51.9178C109.951 52.5062 109.888 53.1536 110.012 53.7782C110.136 54.4028 110.443 54.9767 110.893 55.427C111.343 55.8773 111.917 56.184 112.542 56.3082C113.166 56.4325 113.814 56.3687 114.402 56.125C114.991 55.8813 115.494 55.4685 115.847 54.939C116.201 54.4094 116.39 53.7869 116.39 53.15C116.39 52.7271 116.307 52.3083 116.145 51.9175C115.984 51.5267 115.747 51.1716 115.447 50.8726C115.148 50.5735 114.793 50.3364 114.403 50.1747C114.012 50.013 113.593 49.9298 113.17 49.9301ZM168.06 49.9301C167.423 49.9301 166.801 50.119 166.271 50.4728C165.742 50.8266 165.329 51.3295 165.085 51.9178C164.841 52.5062 164.778 53.1536 164.902 53.7782C165.026 54.4028 165.333 54.9767 165.783 55.427C166.233 55.8773 166.807 56.184 167.432 56.3082C168.056 56.4325 168.704 56.3687 169.292 56.125C169.881 55.8813 170.384 55.4685 170.737 54.939C171.091 54.4094 171.28 53.7869 171.28 53.15C171.278 52.2965 170.939 51.4784 170.335 50.8749C169.732 50.2714 168.914 49.9316 168.06 49.9301ZM149.76 43.27H126.48C126.066 43.27 125.669 43.4344 125.377 43.7269C125.084 44.0195 124.92 44.4163 124.92 44.8301C124.92 45.2438 125.084 45.6405 125.377 45.9331C125.669 46.2257 126.066 46.39 126.48 46.39H149.76C149.965 46.39 150.168 46.3498 150.357 46.2714C150.546 46.193 150.718 46.078 150.863 45.9331C151.008 45.7882 151.123 45.6163 151.201 45.427C151.28 45.2377 151.32 45.0349 151.32 44.8301C151.32 44.6252 151.28 44.4223 151.201 44.233C151.123 44.0438 151.008 43.8718 150.863 43.7269C150.718 43.5821 150.546 43.4672 150.357 43.3888C150.168 43.3104 149.965 43.27 149.76 43.27ZM109.84 36.6201H89.89C89.4762 36.6201 89.0795 36.7845 88.7869 37.077C88.4944 37.3696 88.33 37.7663 88.33 38.1801C88.33 38.5938 88.4944 38.9906 88.7869 39.2832C89.0795 39.5758 89.4762 39.7401 89.89 39.7401H109.84C110.045 39.7401 110.248 39.6997 110.437 39.6213C110.626 39.5429 110.798 39.4281 110.943 39.2832C111.088 39.1383 111.203 38.9664 111.281 38.7771C111.36 38.5878 111.4 38.3849 111.4 38.1801C111.4 37.9752 111.36 37.7724 111.281 37.5831C111.203 37.3939 111.088 37.2219 110.943 37.077C110.798 36.9322 110.626 36.8172 110.437 36.7388C110.248 36.6604 110.045 36.6201 109.84 36.6201ZM139.22 15.4401C139.076 15.2951 138.904 15.18 138.716 15.1014C138.527 15.0229 138.325 14.9825 138.12 14.9825C137.916 14.9825 137.713 15.0229 137.524 15.1014C137.336 15.18 137.164 15.2951 137.02 15.4401L123.15 29.3101L115.94 22.1001C115.796 21.955 115.624 21.8398 115.435 21.761C115.246 21.6822 115.043 21.6413 114.839 21.6409C114.634 21.6404 114.431 21.6803 114.242 21.7582C114.052 21.8361 113.88 21.9506 113.735 22.0951C113.59 22.2395 113.475 22.4111 113.396 22.6001C113.317 22.7891 113.276 22.9918 113.276 23.1965C113.275 23.4013 113.315 23.6041 113.393 23.7935C113.471 23.9828 113.586 24.1549 113.73 24.3L122.05 32.6201C122.194 32.7659 122.365 32.8815 122.554 32.9604C122.743 33.0394 122.945 33.0802 123.15 33.0802C123.355 33.0802 123.557 33.0394 123.746 32.9604C123.935 32.8815 124.106 32.7659 124.25 32.6201L139.22 17.65C139.513 17.3569 139.678 16.9595 139.678 16.545C139.678 16.1306 139.513 15.7332 139.22 15.4401Z" fill="#B24D97"/>
</g>
<defs>
<clipPath id="clip0">
<rect width="99.6" height="63.03" fill="white" transform="translate(85)"/>
</clipPath>
</defs>
</svg>
