<svg width="224" height="94" viewBox="0 0 224 94" fill="none" xmlns="http://www.w3.org/2000/svg">
<g clip-path="url(#clip0)">
<path d="M111.75 0C95.7547 0 82.75 13.0047 82.75 29C82.75 44.9953 95.7547 58 111.75 58C127.745 58 140.75 44.9953 140.75 29C140.75 13.0047 127.745 0 111.75 0ZM111.75 53.1629C98.4281 53.1629 87.5871 42.3219 87.5871 29C87.5871 23.2 89.6375 17.8871 93.0473 13.7184L103.809 24.4801C101.951 26.9609 100.977 29.725 100.932 32.2512L93.2059 35.1172C92.8207 35.2645 92.5375 35.593 92.4469 35.9895C92.3562 36.3859 92.4809 36.8164 92.7754 37.0996C93.8742 38.1984 94.1008 39.0254 94.3727 40.0789C94.6785 41.257 95.0297 42.5824 96.593 44.1457C98.1562 45.709 99.493 46.0602 100.66 46.366C101.713 46.6379 102.54 46.8645 103.639 47.9633C103.866 48.1898 104.171 48.3145 104.489 48.3145C104.568 48.3145 104.659 48.3031 104.738 48.2918C105.134 48.2012 105.463 47.918 105.61 47.5441L108.544 39.8297C111.048 39.773 113.789 38.7648 116.247 36.9297L127.02 47.7027C122.863 51.1125 117.55 53.1629 111.75 53.1629ZM130.453 44.2816L119.691 33.5199C121.538 31.0617 122.489 28.3316 122.557 25.8395L130.305 22.8715C130.691 22.7242 130.974 22.3957 131.053 21.9992C131.144 21.6027 131.019 21.1836 130.725 20.8891C129.626 19.7902 129.399 18.9633 129.127 17.9098C128.821 16.7316 128.47 15.4062 126.907 13.843C125.344 12.2797 124.007 11.9285 122.84 11.6227C121.787 11.3508 120.96 11.1242 119.861 10.0254C119.566 9.73086 119.159 9.60625 118.751 9.69687C118.354 9.7875 118.026 10.0707 117.879 10.4445L114.922 18.193C112.43 18.2609 109.688 19.2125 107.23 21.059L96.4684 10.2973C100.637 6.8875 105.961 4.83711 111.75 4.83711C125.072 4.83711 135.913 15.6781 135.913 29C135.913 34.8 133.862 40.1129 130.453 44.2816Z" fill="white"/>
</g>
<path d="M59.3642 73.8H69.7442V76.22H62.1042V79.48H66.0242C66.7176 79.48 67.3442 79.5733 67.9042 79.76C68.4776 79.9467 68.9642 80.22 69.3642 80.58C69.7776 80.94 70.0909 81.38 70.3042 81.9C70.5309 82.42 70.6442 83.02 70.6442 83.7C70.6442 85.0867 70.2309 86.1533 69.4042 86.9C68.5909 87.6333 67.4976 88 66.1242 88H59.3642V73.8ZM65.8642 85.66C66.5176 85.66 67.0109 85.4867 67.3442 85.14C67.6776 84.78 67.8442 84.2933 67.8442 83.68C67.8442 83.0933 67.6776 82.62 67.3442 82.26C67.0109 81.9 66.5176 81.72 65.8642 81.72H62.1042V85.66H65.8642ZM77.2636 88.2C76.4236 88.2 75.6636 88.06 74.9836 87.78C74.3036 87.4867 73.7236 87.0933 73.2436 86.6C72.7636 86.1067 72.3903 85.5333 72.1236 84.88C71.8703 84.2267 71.7436 83.54 71.7436 82.82C71.7436 82.0733 71.8703 81.3733 72.1236 80.72C72.3769 80.0533 72.7436 79.4733 73.2236 78.98C73.7036 78.4733 74.2836 78.0733 74.9636 77.78C75.6569 77.4867 76.4303 77.34 77.2836 77.34C78.1369 77.34 78.8969 77.4867 79.5636 77.78C80.2436 78.0733 80.8169 78.4667 81.2836 78.96C81.7636 79.4533 82.1236 80.0267 82.3636 80.68C82.6169 81.3333 82.7436 82.0133 82.7436 82.72C82.7436 82.8933 82.7369 83.06 82.7236 83.22C82.7236 83.38 82.7103 83.5133 82.6836 83.62H74.5836C74.6236 84.0333 74.7236 84.4 74.8836 84.72C75.0436 85.04 75.2503 85.3133 75.5036 85.54C75.7569 85.7667 76.0436 85.94 76.3636 86.06C76.6836 86.18 77.0169 86.24 77.3636 86.24C77.8969 86.24 78.3969 86.1133 78.8636 85.86C79.3436 85.5933 79.6703 85.2467 79.8436 84.82L82.1436 85.46C81.7569 86.26 81.1369 86.92 80.2836 87.44C79.4436 87.9467 78.4369 88.2 77.2636 88.2ZM79.9836 81.88C79.9169 81.0933 79.6236 80.4667 79.1036 80C78.5969 79.52 77.9769 79.28 77.2436 79.28C76.8836 79.28 76.5436 79.3467 76.2236 79.48C75.9169 79.6 75.6436 79.7733 75.4036 80C75.1636 80.2267 74.9636 80.5 74.8036 80.82C74.6569 81.14 74.5703 81.4933 74.5436 81.88H79.9836ZM83.68 78.66C84.2 78.2067 84.7667 77.8733 85.38 77.66C85.9933 77.4467 86.62 77.34 87.26 77.34C87.7267 77.34 88.1667 77.4 88.58 77.52C88.9933 77.6267 89.3533 77.7933 89.66 78.02C89.98 78.2467 90.2267 78.5333 90.4 78.88C90.5867 79.2133 90.68 79.6 90.68 80.04C90.68 80.6 90.5267 81.0933 90.22 81.52C89.9267 81.9333 89.5067 82.1933 88.96 82.3C89.72 82.4467 90.2933 82.76 90.68 83.24C91.0667 83.7067 91.26 84.2933 91.26 85C91.26 85.48 91.1533 85.92 90.94 86.32C90.74 86.7067 90.46 87.04 90.1 87.32C89.74 87.6 89.3067 87.82 88.8 87.98C88.3067 88.1267 87.7667 88.2 87.18 88.2C86.3667 88.2 85.6267 88.0667 84.96 87.8C84.2933 87.5333 83.7533 87.16 83.34 86.68L84.62 84.96C84.8867 85.2933 85.2133 85.5467 85.6 85.72C86 85.88 86.4333 85.96 86.9 85.96C87.46 85.96 87.8933 85.8467 88.2 85.62C88.52 85.3933 88.68 85.0667 88.68 84.64C88.68 84.16 88.5 83.7933 88.14 83.54C87.7933 83.2733 87.2 83.14 86.36 83.14H85.54V81.6H86.34C86.98 81.6 87.4667 81.48 87.8 81.24C88.1467 80.9867 88.32 80.6667 88.32 80.28C88.32 79.9467 88.1933 79.6933 87.94 79.52C87.7 79.3467 87.38 79.26 86.98 79.26C86.6333 79.26 86.2667 79.34 85.88 79.5C85.4933 79.6467 85.14 79.8667 84.82 80.16L83.68 78.66ZM97.1733 82.76C97.1733 82.0267 97.2999 81.3333 97.5533 80.68C97.8066 80.0267 98.1733 79.4533 98.6533 78.96C99.1333 78.4667 99.7133 78.0733 100.393 77.78C101.073 77.4867 101.84 77.34 102.693 77.34C103.84 77.34 104.813 77.5867 105.613 78.08C106.427 78.5733 107.033 79.22 107.433 80.02L104.813 80.82C104.587 80.4333 104.287 80.14 103.913 79.94C103.54 79.7267 103.127 79.62 102.673 79.62C102.287 79.62 101.927 79.7 101.593 79.86C101.26 80.0067 100.967 80.22 100.713 80.5C100.473 80.7667 100.28 81.0933 100.133 81.48C99.9999 81.8667 99.9333 82.2933 99.9333 82.76C99.9333 83.2267 100.007 83.6533 100.153 84.04C100.3 84.4267 100.493 84.76 100.733 85.04C100.987 85.32 101.28 85.54 101.613 85.7C101.947 85.8467 102.3 85.92 102.673 85.92C103.153 85.92 103.593 85.8 103.993 85.56C104.407 85.32 104.693 85.0267 104.853 84.68L107.473 85.48C107.113 86.28 106.52 86.9333 105.693 87.44C104.867 87.9467 103.873 88.2 102.713 88.2C101.86 88.2 101.093 88.0533 100.413 87.76C99.7333 87.4667 99.1533 87.0733 98.6733 86.58C98.1933 86.0733 97.8199 85.4933 97.5533 84.84C97.2999 84.1733 97.1733 83.48 97.1733 82.76ZM111.982 88.2C111.476 88.2 111.002 88.12 110.562 87.96C110.122 87.7867 109.742 87.5533 109.422 87.26C109.102 86.9533 108.849 86.6 108.662 86.2C108.489 85.8 108.402 85.36 108.402 84.88C108.402 84.3867 108.509 83.9333 108.722 83.52C108.949 83.0933 109.256 82.7333 109.642 82.44C110.042 82.1467 110.516 81.92 111.062 81.76C111.609 81.5867 112.209 81.5 112.862 81.5C113.329 81.5 113.782 81.54 114.222 81.62C114.676 81.7 115.076 81.8133 115.422 81.96V81.36C115.422 80.6667 115.222 80.1333 114.822 79.76C114.436 79.3867 113.856 79.2 113.082 79.2C112.522 79.2 111.976 79.3 111.442 79.5C110.909 79.7 110.362 79.9933 109.802 80.38L108.982 78.68C110.329 77.7867 111.782 77.34 113.342 77.34C114.849 77.34 116.016 77.7133 116.842 78.46C117.682 79.1933 118.102 80.26 118.102 81.66V84.92C118.102 85.2 118.149 85.4 118.242 85.52C118.349 85.64 118.516 85.7067 118.742 85.72V88C118.289 88.0933 117.896 88.14 117.562 88.14C117.056 88.14 116.662 88.0267 116.382 87.8C116.116 87.5733 115.949 87.2733 115.882 86.9L115.822 86.32C115.356 86.9333 114.789 87.4 114.122 87.72C113.456 88.04 112.742 88.2 111.982 88.2ZM112.742 86.24C113.196 86.24 113.622 86.16 114.022 86C114.436 85.84 114.756 85.6267 114.982 85.36C115.276 85.1333 115.422 84.88 115.422 84.6V83.4C115.102 83.28 114.756 83.1867 114.382 83.12C114.009 83.04 113.649 83 113.302 83C112.609 83 112.042 83.16 111.602 83.48C111.162 83.7867 110.942 84.18 110.942 84.66C110.942 85.1133 111.116 85.4933 111.462 85.8C111.809 86.0933 112.236 86.24 112.742 86.24ZM122.306 77.52L124.566 80.8L124.726 81.16L124.926 80.8L127.166 77.52H129.926L126.186 82.78L129.986 88H127.226L124.906 84.74L124.726 84.4L124.566 84.74L122.266 88H119.506L123.286 82.78L119.566 77.52H122.306ZM134.014 88.2C133.507 88.2 133.034 88.12 132.594 87.96C132.154 87.7867 131.774 87.5533 131.454 87.26C131.134 86.9533 130.88 86.6 130.694 86.2C130.52 85.8 130.434 85.36 130.434 84.88C130.434 84.3867 130.54 83.9333 130.754 83.52C130.98 83.0933 131.287 82.7333 131.674 82.44C132.074 82.1467 132.547 81.92 133.094 81.76C133.64 81.5867 134.24 81.5 134.894 81.5C135.36 81.5 135.814 81.54 136.254 81.62C136.707 81.7 137.107 81.8133 137.454 81.96V81.36C137.454 80.6667 137.254 80.1333 136.854 79.76C136.467 79.3867 135.887 79.2 135.114 79.2C134.554 79.2 134.007 79.3 133.474 79.5C132.94 79.7 132.394 79.9933 131.834 80.38L131.014 78.68C132.36 77.7867 133.814 77.34 135.374 77.34C136.88 77.34 138.047 77.7133 138.874 78.46C139.714 79.1933 140.134 80.26 140.134 81.66V84.92C140.134 85.2 140.18 85.4 140.274 85.52C140.38 85.64 140.547 85.7067 140.774 85.72V88C140.32 88.0933 139.927 88.14 139.594 88.14C139.087 88.14 138.694 88.0267 138.414 87.8C138.147 87.5733 137.98 87.2733 137.914 86.9L137.854 86.32C137.387 86.9333 136.82 87.4 136.154 87.72C135.487 88.04 134.774 88.2 134.014 88.2ZM134.774 86.24C135.227 86.24 135.654 86.16 136.054 86C136.467 85.84 136.787 85.6267 137.014 85.36C137.307 85.1333 137.454 84.88 137.454 84.6V83.4C137.134 83.28 136.787 83.1867 136.414 83.12C136.04 83.04 135.68 83 135.334 83C134.64 83 134.074 83.16 133.634 83.48C133.194 83.7867 132.974 84.18 132.974 84.66C132.974 85.1133 133.147 85.4933 133.494 85.8C133.84 86.0933 134.267 86.24 134.774 86.24ZM148.997 88.2C148.17 88.2 147.45 88.02 146.837 87.66C146.224 87.2867 145.744 86.7867 145.397 86.16V92.26H142.717V77.52H145.057V79.32C145.444 78.7067 145.944 78.2267 146.557 77.88C147.17 77.52 147.877 77.34 148.677 77.34C149.384 77.34 150.037 77.4867 150.637 77.78C151.237 78.06 151.75 78.4467 152.177 78.94C152.617 79.42 152.957 79.9933 153.197 80.66C153.45 81.3133 153.577 82.0067 153.577 82.74C153.577 83.5 153.464 84.2133 153.237 84.88C153.01 85.5467 152.69 86.1267 152.277 86.62C151.877 87.1133 151.397 87.5 150.837 87.78C150.277 88.06 149.664 88.2 148.997 88.2ZM148.097 85.92C148.497 85.92 148.864 85.8333 149.197 85.66C149.544 85.4867 149.837 85.2533 150.077 84.96C150.317 84.6667 150.504 84.3267 150.637 83.94C150.77 83.5533 150.837 83.1533 150.837 82.74C150.837 82.3 150.764 81.8933 150.617 81.52C150.47 81.1333 150.264 80.8 149.997 80.52C149.744 80.24 149.437 80.02 149.077 79.86C148.73 79.7 148.35 79.62 147.937 79.62C147.684 79.62 147.424 79.6667 147.157 79.76C146.89 79.84 146.644 79.96 146.417 80.12C146.19 80.28 145.984 80.4667 145.797 80.68C145.624 80.8933 145.49 81.1267 145.397 81.38V83.84C145.637 84.44 146.004 84.94 146.497 85.34C146.99 85.7267 147.524 85.92 148.097 85.92ZM158.232 88.2C157.726 88.2 157.252 88.12 156.812 87.96C156.372 87.7867 155.992 87.5533 155.672 87.26C155.352 86.9533 155.099 86.6 154.912 86.2C154.739 85.8 154.652 85.36 154.652 84.88C154.652 84.3867 154.759 83.9333 154.972 83.52C155.199 83.0933 155.506 82.7333 155.892 82.44C156.292 82.1467 156.766 81.92 157.312 81.76C157.859 81.5867 158.459 81.5 159.112 81.5C159.579 81.5 160.032 81.54 160.472 81.62C160.926 81.7 161.326 81.8133 161.672 81.96V81.36C161.672 80.6667 161.472 80.1333 161.072 79.76C160.686 79.3867 160.106 79.2 159.332 79.2C158.772 79.2 158.226 79.3 157.692 79.5C157.159 79.7 156.612 79.9933 156.052 80.38L155.232 78.68C156.579 77.7867 158.032 77.34 159.592 77.34C161.099 77.34 162.266 77.7133 163.092 78.46C163.932 79.1933 164.352 80.26 164.352 81.66V84.92C164.352 85.2 164.399 85.4 164.492 85.52C164.599 85.64 164.766 85.7067 164.992 85.72V88C164.539 88.0933 164.146 88.14 163.812 88.14C163.306 88.14 162.912 88.0267 162.632 87.8C162.366 87.5733 162.199 87.2733 162.132 86.9L162.072 86.32C161.606 86.9333 161.039 87.4 160.372 87.72C159.706 88.04 158.992 88.2 158.232 88.2ZM158.992 86.24C159.446 86.24 159.872 86.16 160.272 86C160.686 85.84 161.006 85.6267 161.232 85.36C161.526 85.1333 161.672 84.88 161.672 84.6V83.4C161.352 83.28 161.006 83.1867 160.632 83.12C160.259 83.04 159.899 83 159.552 83C158.859 83 158.292 83.16 157.852 83.48C157.412 83.7867 157.192 84.18 157.192 84.66C157.192 85.1133 157.366 85.4933 157.712 85.8C158.059 86.0933 158.486 86.24 158.992 86.24Z" fill="white"/>
<defs>
<clipPath id="clip0">
<rect width="58" height="58" fill="white" transform="translate(82.75)"/>
</clipPath>
</defs>
</svg>
