<svg width="224" height="94" viewBox="0 0 224 94" fill="none" xmlns="http://www.w3.org/2000/svg">
<g clip-path="url(#clip0)">
<path d="M111.75 0C95.7547 0 82.75 13.0047 82.75 29C82.75 44.9953 95.7547 58 111.75 58C127.745 58 140.75 44.9953 140.75 29C140.75 13.0047 127.745 0 111.75 0ZM111.75 53.1629C98.4281 53.1629 87.5871 42.3219 87.5871 29C87.5871 23.2 89.6375 17.8871 93.0473 13.7184L102.087 22.7582V40.8039C102.087 46.298 106.426 50.7613 111.75 50.7613C116.689 50.7613 120.733 46.9098 121.3 41.982L127.032 47.7141C122.863 51.1125 117.55 53.1629 111.75 53.1629ZM118.332 38.9914C116.519 39.4785 113.914 40.7133 112.905 43.8625C112.747 44.3609 112.282 44.7008 111.761 44.7008C111.24 44.7008 110.776 44.3609 110.617 43.8625C109.473 40.3168 106.279 39.1953 104.511 38.8328V36.3746C106.29 36.6691 109.688 37.6094 111.761 40.7133C113.041 38.7875 114.831 37.7 116.429 37.077L118.332 38.9914ZM119 27.9578C118.071 28.1391 116.768 28.5469 115.556 29.3965L113.823 27.6633C115.658 26.2699 117.731 25.7148 118.989 25.5109V27.9578H119ZM112.656 33.3273C112.43 33.6105 112.124 33.8371 111.75 33.8371C111.229 33.8371 110.764 33.4973 110.606 32.9988C109.462 29.4531 106.267 28.3316 104.5 27.9691V25.5109C104.625 25.5336 104.783 25.5676 104.919 25.5902L112.656 33.3273ZM130.453 44.2816L121.413 35.2418V10.875C121.413 10.2066 120.869 9.66289 120.201 9.66289C119.532 9.66289 118.989 10.2066 118.989 10.875V17.0488C117.527 17.2867 114.967 17.9777 112.951 19.9488V8.46211C112.951 7.79375 112.407 7.25 111.739 7.25C111.07 7.25 110.527 7.79375 110.527 8.46211V19.9488C108.51 17.9777 105.95 17.298 104.489 17.0488V10.875C104.489 10.2066 103.945 9.66289 103.277 9.66289C102.608 9.66289 102.064 10.2066 102.064 10.875V15.916L96.4457 10.2973C100.614 6.8875 105.939 4.83711 111.727 4.83711C125.049 4.83711 135.89 15.6781 135.89 29C135.913 34.8 133.862 40.1129 130.453 44.2816Z" fill="white"/>
</g>
<path d="M54.3349 73.8H64.7149V76.22H57.0749V79.48H60.9949C61.6883 79.48 62.3149 79.5733 62.8749 79.76C63.4483 79.9467 63.9349 80.22 64.3349 80.58C64.7483 80.94 65.0616 81.38 65.2749 81.9C65.5016 82.42 65.6149 83.02 65.6149 83.7C65.6149 85.0867 65.2016 86.1533 64.3749 86.9C63.5616 87.6333 62.4683 88 61.0949 88H54.3349V73.8ZM60.8349 85.66C61.4883 85.66 61.9816 85.4867 62.3149 85.14C62.6483 84.78 62.8149 84.2933 62.8149 83.68C62.8149 83.0933 62.6483 82.62 62.3149 82.26C61.9816 81.9 61.4883 81.72 60.8349 81.72H57.0749V85.66H60.8349ZM72.2343 88.2C71.3943 88.2 70.6343 88.06 69.9543 87.78C69.2743 87.4867 68.6943 87.0933 68.2143 86.6C67.7343 86.1067 67.361 85.5333 67.0943 84.88C66.841 84.2267 66.7143 83.54 66.7143 82.82C66.7143 82.0733 66.841 81.3733 67.0943 80.72C67.3476 80.0533 67.7143 79.4733 68.1943 78.98C68.6743 78.4733 69.2543 78.0733 69.9343 77.78C70.6276 77.4867 71.401 77.34 72.2543 77.34C73.1076 77.34 73.8676 77.4867 74.5343 77.78C75.2143 78.0733 75.7876 78.4667 76.2543 78.96C76.7343 79.4533 77.0943 80.0267 77.3343 80.68C77.5876 81.3333 77.7143 82.0133 77.7143 82.72C77.7143 82.8933 77.7076 83.06 77.6943 83.22C77.6943 83.38 77.681 83.5133 77.6543 83.62H69.5543C69.5943 84.0333 69.6943 84.4 69.8543 84.72C70.0143 85.04 70.221 85.3133 70.4743 85.54C70.7276 85.7667 71.0143 85.94 71.3343 86.06C71.6543 86.18 71.9876 86.24 72.3343 86.24C72.8676 86.24 73.3676 86.1133 73.8343 85.86C74.3143 85.5933 74.641 85.2467 74.8143 84.82L77.1143 85.46C76.7276 86.26 76.1076 86.92 75.2543 87.44C74.4143 87.9467 73.4076 88.2 72.2343 88.2ZM74.9543 81.88C74.8876 81.0933 74.5943 80.4667 74.0743 80C73.5676 79.52 72.9476 79.28 72.2143 79.28C71.8543 79.28 71.5143 79.3467 71.1943 79.48C70.8876 79.6 70.6143 79.7733 70.3743 80C70.1343 80.2267 69.9343 80.5 69.7743 80.82C69.6276 81.14 69.541 81.4933 69.5143 81.88H74.9543ZM78.6507 78.66C79.1707 78.2067 79.7374 77.8733 80.3507 77.66C80.964 77.4467 81.5907 77.34 82.2307 77.34C82.6974 77.34 83.1374 77.4 83.5507 77.52C83.964 77.6267 84.324 77.7933 84.6307 78.02C84.9507 78.2467 85.1974 78.5333 85.3707 78.88C85.5574 79.2133 85.6507 79.6 85.6507 80.04C85.6507 80.6 85.4974 81.0933 85.1907 81.52C84.8974 81.9333 84.4774 82.1933 83.9307 82.3C84.6907 82.4467 85.264 82.76 85.6507 83.24C86.0374 83.7067 86.2307 84.2933 86.2307 85C86.2307 85.48 86.124 85.92 85.9107 86.32C85.7107 86.7067 85.4307 87.04 85.0707 87.32C84.7107 87.6 84.2774 87.82 83.7707 87.98C83.2774 88.1267 82.7374 88.2 82.1507 88.2C81.3374 88.2 80.5974 88.0667 79.9307 87.8C79.264 87.5333 78.724 87.16 78.3107 86.68L79.5907 84.96C79.8574 85.2933 80.184 85.5467 80.5707 85.72C80.9707 85.88 81.404 85.96 81.8707 85.96C82.4307 85.96 82.864 85.8467 83.1707 85.62C83.4907 85.3933 83.6507 85.0667 83.6507 84.64C83.6507 84.16 83.4707 83.7933 83.1107 83.54C82.764 83.2733 82.1707 83.14 81.3307 83.14H80.5107V81.6H81.3107C81.9507 81.6 82.4374 81.48 82.7707 81.24C83.1174 80.9867 83.2907 80.6667 83.2907 80.28C83.2907 79.9467 83.164 79.6933 82.9107 79.52C82.6707 79.3467 82.3507 79.26 81.9507 79.26C81.604 79.26 81.2374 79.34 80.8507 79.5C80.464 79.6467 80.1107 79.8667 79.7907 80.16L78.6507 78.66ZM99.884 79.74H95.504V88H92.844V77.52H99.884V79.74ZM99.3612 85.72C99.7478 85.6933 100.061 85.6133 100.301 85.48C100.555 85.3467 100.761 85.1 100.921 84.74C101.095 84.38 101.235 83.8867 101.341 83.26C101.461 82.62 101.581 81.7867 101.701 80.76L102.061 77.52H109.401V88H106.741V79.76H104.401L104.201 81.34C104.041 82.66 103.848 83.7533 103.621 84.62C103.395 85.4733 103.101 86.1533 102.741 86.66C102.395 87.1667 101.961 87.5267 101.441 87.74C100.921 87.94 100.281 88.0533 99.5212 88.08L99.3612 85.72ZM115.966 81.52C116.073 80.88 116.266 80.3 116.546 79.78C116.839 79.26 117.193 78.82 117.606 78.46C118.033 78.0867 118.513 77.8067 119.046 77.62C119.593 77.42 120.179 77.32 120.806 77.32C121.553 77.32 122.233 77.46 122.846 77.74C123.459 78.0067 123.979 78.38 124.406 78.86C124.846 79.34 125.179 79.92 125.406 80.6C125.646 81.2667 125.766 82 125.766 82.8C125.766 83.64 125.639 84.4 125.386 85.08C125.133 85.7467 124.786 86.3133 124.346 86.78C123.906 87.2333 123.379 87.5867 122.766 87.84C122.166 88.08 121.506 88.2 120.786 88.2C120.119 88.2 119.513 88.1 118.966 87.9C118.419 87.6867 117.933 87.3933 117.506 87.02C117.093 86.6333 116.746 86.1733 116.466 85.64C116.199 85.1067 116.019 84.5067 115.926 83.84H114.566V88H111.906V77.52H114.566V81.52H115.966ZM118.426 82.76C118.426 83.8 118.633 84.58 119.046 85.1C119.473 85.6067 120.046 85.86 120.766 85.86C121.526 85.86 122.119 85.5933 122.546 85.06C122.973 84.5133 123.186 83.74 123.186 82.74C123.186 81.7267 122.966 80.96 122.526 80.44C122.086 79.92 121.506 79.66 120.786 79.66C120.039 79.66 119.459 79.9333 119.046 80.48C118.633 81.0133 118.426 81.7733 118.426 82.76ZM132.141 88H129.481V79.84H126.201V77.52H135.401V79.84H132.141V88ZM141.316 88.2C140.476 88.2 139.716 88.06 139.036 87.78C138.356 87.4867 137.776 87.0933 137.296 86.6C136.816 86.1067 136.443 85.5333 136.176 84.88C135.923 84.2267 135.796 83.54 135.796 82.82C135.796 82.0733 135.923 81.3733 136.176 80.72C136.43 80.0533 136.796 79.4733 137.276 78.98C137.756 78.4733 138.336 78.0733 139.016 77.78C139.71 77.4867 140.483 77.34 141.336 77.34C142.19 77.34 142.95 77.4867 143.616 77.78C144.296 78.0733 144.87 78.4667 145.336 78.96C145.816 79.4533 146.176 80.0267 146.416 80.68C146.67 81.3333 146.796 82.0133 146.796 82.72C146.796 82.8933 146.79 83.06 146.776 83.22C146.776 83.38 146.763 83.5133 146.736 83.62H138.636C138.676 84.0333 138.776 84.4 138.936 84.72C139.096 85.04 139.303 85.3133 139.556 85.54C139.81 85.7667 140.096 85.94 140.416 86.06C140.736 86.18 141.07 86.24 141.416 86.24C141.95 86.24 142.45 86.1133 142.916 85.86C143.396 85.5933 143.723 85.2467 143.896 84.82L146.196 85.46C145.81 86.26 145.19 86.92 144.336 87.44C143.496 87.9467 142.49 88.2 141.316 88.2ZM144.036 81.88C143.97 81.0933 143.676 80.4667 143.156 80C142.65 79.52 142.03 79.28 141.296 79.28C140.936 79.28 140.596 79.3467 140.276 79.48C139.97 79.6 139.696 79.7733 139.456 80C139.216 80.2267 139.016 80.5 138.856 80.82C138.71 81.14 138.623 81.4933 138.596 81.88H144.036ZM151.129 81.48H155.289V77.52H157.949V88H155.289V83.76H151.129V88H148.469V77.52H151.129V81.48ZM163.262 88.2C162.755 88.2 162.282 88.12 161.842 87.96C161.402 87.7867 161.022 87.5533 160.702 87.26C160.382 86.9533 160.128 86.6 159.942 86.2C159.768 85.8 159.682 85.36 159.682 84.88C159.682 84.3867 159.788 83.9333 160.002 83.52C160.228 83.0933 160.535 82.7333 160.922 82.44C161.322 82.1467 161.795 81.92 162.342 81.76C162.888 81.5867 163.488 81.5 164.142 81.5C164.608 81.5 165.062 81.54 165.502 81.62C165.955 81.7 166.355 81.8133 166.702 81.96V81.36C166.702 80.6667 166.502 80.1333 166.102 79.76C165.715 79.3867 165.135 79.2 164.362 79.2C163.802 79.2 163.255 79.3 162.722 79.5C162.188 79.7 161.642 79.9933 161.082 80.38L160.262 78.68C161.608 77.7867 163.062 77.34 164.622 77.34C166.128 77.34 167.295 77.7133 168.122 78.46C168.962 79.1933 169.382 80.26 169.382 81.66V84.92C169.382 85.2 169.428 85.4 169.522 85.52C169.628 85.64 169.795 85.7067 170.022 85.72V88C169.568 88.0933 169.175 88.14 168.842 88.14C168.335 88.14 167.942 88.0267 167.662 87.8C167.395 87.5733 167.228 87.2733 167.162 86.9L167.102 86.32C166.635 86.9333 166.068 87.4 165.402 87.72C164.735 88.04 164.022 88.2 163.262 88.2ZM164.022 86.24C164.475 86.24 164.902 86.16 165.302 86C165.715 85.84 166.035 85.6267 166.262 85.36C166.555 85.1333 166.702 84.88 166.702 84.6V83.4C166.382 83.28 166.035 83.1867 165.662 83.12C165.288 83.04 164.928 83 164.582 83C163.888 83 163.322 83.16 162.882 83.48C162.442 83.7867 162.222 84.18 162.222 84.66C162.222 85.1133 162.395 85.4933 162.742 85.8C163.088 86.0933 163.515 86.24 164.022 86.24Z" fill="white"/>
<defs>
<clipPath id="clip0">
<rect width="58" height="58" fill="white" transform="translate(82.75)"/>
</clipPath>
</defs>
</svg>
