<svg width="224" height="107" viewBox="0 0 224 107" fill="none" xmlns="http://www.w3.org/2000/svg">
<g clip-path="url(#clip0)">
<path d="M117.344 7.98438C117.672 7.26562 117.875 6.46875 117.875 5.625C117.875 2.51562 115.359 0 112.25 0C109.156 0 106.625 2.51562 106.625 5.625C106.625 6.46875 106.828 7.26562 107.156 7.98438C94.6719 10.2812 85.0781 20.8281 84.2188 33.75H140.281C139.422 20.8281 129.828 10.2812 117.344 7.98438ZM112.25 7.5C111.219 7.5 110.375 6.65625 110.375 5.625C110.375 4.59375 111.219 3.75 112.25 3.75C113.281 3.75 114.125 4.59375 114.125 5.625C114.125 6.65625 113.281 7.5 112.25 7.5Z" fill="white"/>
<path d="M80.25 37.5C81.125 41.7812 85.2188 45 89.75 45H134.75C139.281 45 143.375 41.7812 144.25 37.5H80.25Z" fill="white"/>
</g>
<path d="M38.3849 70.26C38.3849 70.9533 38.2516 71.6 37.9849 72.2C37.7183 72.8 37.3516 73.3267 36.8849 73.78C36.4183 74.22 35.8649 74.5667 35.2249 74.82C34.5983 75.0733 33.9183 75.2 33.1849 75.2C32.3849 75.2 31.6583 75.0533 31.0049 74.76C30.3649 74.4667 29.8183 74.04 29.3649 73.48C28.9116 72.92 28.5649 72.24 28.3249 71.44C28.0849 70.6267 27.9649 69.7067 27.9649 68.68C27.9649 67.3867 28.0916 66.2467 28.3449 65.26C28.5983 64.26 28.9649 63.4267 29.4449 62.76C29.9249 62.08 30.5049 61.5667 31.1849 61.22C31.8649 60.8733 32.6249 60.7 33.4649 60.7C34.3583 60.7 35.1783 60.8933 35.9249 61.28C36.6849 61.6667 37.3249 62.22 37.8449 62.94L36.3049 64.62C35.9849 64.1133 35.5716 63.72 35.0649 63.44C34.5583 63.16 34.0116 63.02 33.4249 63.02C32.5316 63.02 31.8183 63.3733 31.2849 64.08C30.7516 64.7867 30.4716 65.7867 30.4449 67.08C30.7249 66.6 31.1183 66.22 31.6249 65.94C32.1449 65.66 32.7449 65.52 33.4249 65.52C34.1183 65.52 34.7649 65.64 35.3649 65.88C35.9783 66.12 36.5049 66.4533 36.9449 66.88C37.3983 67.3067 37.7516 67.8133 38.0049 68.4C38.2583 68.9733 38.3849 69.5933 38.3849 70.26ZM33.2049 72.94C33.5516 72.94 33.8849 72.8733 34.2049 72.74C34.5249 72.5933 34.8049 72.4 35.0449 72.16C35.2849 71.9067 35.4716 71.62 35.6049 71.3C35.7516 70.9667 35.8249 70.62 35.8249 70.26C35.8249 69.9 35.7516 69.5667 35.6049 69.26C35.4716 68.94 35.2849 68.66 35.0449 68.42C34.8049 68.18 34.5249 67.9933 34.2049 67.86C33.8983 67.7267 33.5649 67.66 33.2049 67.66C32.8449 67.66 32.5049 67.7267 32.1849 67.86C31.8649 67.9933 31.5849 68.18 31.3449 68.42C31.1049 68.66 30.9183 68.94 30.7849 69.26C30.6516 69.5667 30.5849 69.9 30.5849 70.26C30.5849 70.62 30.6516 70.9667 30.7849 71.3C30.9316 71.62 31.1249 71.9 31.3649 72.14C31.6049 72.38 31.8783 72.5733 32.1849 72.72C32.5049 72.8667 32.8449 72.94 33.2049 72.94ZM44.9934 68.62C45.66 68.62 46.28 68.7333 46.8534 68.96C47.4267 69.1733 47.92 69.48 48.3334 69.88C48.7467 70.28 49.0667 70.76 49.2934 71.32C49.5334 71.88 49.6534 72.5 49.6534 73.18C49.6534 73.9 49.52 74.5533 49.2534 75.14C49 75.7267 48.64 76.2267 48.1734 76.64C47.7067 77.0667 47.1534 77.3933 46.5134 77.62C45.8734 77.86 45.18 77.98 44.4334 77.98C43.3934 77.98 42.46 77.76 41.6334 77.32C40.82 76.88 40.2 76.28 39.7734 75.52L41.3134 73.92C41.6867 74.44 42.1534 74.8533 42.7134 75.16C43.2734 75.4667 43.8534 75.62 44.4534 75.62C45.1734 75.62 45.76 75.4067 46.2134 74.98C46.68 74.54 46.9134 73.96 46.9134 73.24C46.9134 72.5467 46.6934 71.9867 46.2534 71.56C45.8267 71.1333 45.28 70.92 44.6134 70.92C44.1734 70.92 43.76 71.02 43.3734 71.22C43 71.42 42.7 71.6933 42.4734 72.04H40.1334C40.1334 72 40.16 71.8533 40.2134 71.6C40.2667 71.3333 40.3334 71 40.4134 70.6C40.4934 70.1867 40.58 69.7333 40.6734 69.24C40.7667 68.7333 40.8667 68.22 40.9734 67.7C41.2134 66.4733 41.48 65.1 41.7734 63.58H48.7734V66.02H43.7134L43.1334 69.2C43.2934 69.0267 43.5267 68.8867 43.8334 68.78C44.1534 68.6733 44.54 68.62 44.9934 68.62ZM62.6123 75.2C61.7856 75.2 61.0656 75.02 60.4523 74.66C59.8389 74.2867 59.3589 73.7867 59.0123 73.16V79.26H56.3323V64.52H58.6723V66.32C59.0589 65.7067 59.5589 65.2267 60.1723 64.88C60.7856 64.52 61.4923 64.34 62.2923 64.34C62.9989 64.34 63.6523 64.4867 64.2523 64.78C64.8523 65.06 65.3656 65.4467 65.7923 65.94C66.2323 66.42 66.5723 66.9933 66.8123 67.66C67.0656 68.3133 67.1923 69.0067 67.1923 69.74C67.1923 70.5 67.0789 71.2133 66.8523 71.88C66.6256 72.5467 66.3056 73.1267 65.8923 73.62C65.4923 74.1133 65.0123 74.5 64.4523 74.78C63.8923 75.06 63.2789 75.2 62.6123 75.2ZM61.7123 72.92C62.1123 72.92 62.4789 72.8333 62.8123 72.66C63.1589 72.4867 63.4523 72.2533 63.6923 71.96C63.9323 71.6667 64.1189 71.3267 64.2523 70.94C64.3856 70.5533 64.4523 70.1533 64.4523 69.74C64.4523 69.3 64.3789 68.8933 64.2323 68.52C64.0856 68.1333 63.8789 67.8 63.6123 67.52C63.3589 67.24 63.0523 67.02 62.6923 66.86C62.3456 66.7 61.9656 66.62 61.5523 66.62C61.2989 66.62 61.0389 66.6667 60.7723 66.76C60.5056 66.84 60.2589 66.96 60.0323 67.12C59.8056 67.28 59.5989 67.4667 59.4123 67.68C59.2389 67.8933 59.1056 68.1267 59.0123 68.38V70.84C59.2523 71.44 59.6189 71.94 60.1123 72.34C60.6056 72.7267 61.1389 72.92 61.7123 72.92ZM71.8476 75.2C71.3409 75.2 70.8676 75.12 70.4276 74.96C69.9876 74.7867 69.6076 74.5533 69.2876 74.26C68.9676 73.9533 68.7142 73.6 68.5276 73.2C68.3542 72.8 68.2676 72.36 68.2676 71.88C68.2676 71.3867 68.3742 70.9333 68.5876 70.52C68.8142 70.0933 69.1209 69.7333 69.5076 69.44C69.9076 69.1467 70.3809 68.92 70.9276 68.76C71.4742 68.5867 72.0742 68.5 72.7276 68.5C73.1942 68.5 73.6476 68.54 74.0876 68.62C74.5409 68.7 74.9409 68.8133 75.2876 68.96V68.36C75.2876 67.6667 75.0876 67.1333 74.6876 66.76C74.3009 66.3867 73.7209 66.2 72.9476 66.2C72.3876 66.2 71.8409 66.3 71.3076 66.5C70.7742 66.7 70.2276 66.9933 69.6676 67.38L68.8476 65.68C70.1942 64.7867 71.6476 64.34 73.2076 64.34C74.7142 64.34 75.8809 64.7133 76.7076 65.46C77.5476 66.1933 77.9676 67.26 77.9676 68.66V71.92C77.9676 72.2 78.0142 72.4 78.1076 72.52C78.2142 72.64 78.3809 72.7067 78.6076 72.72V75C78.1542 75.0933 77.7609 75.14 77.4276 75.14C76.9209 75.14 76.5276 75.0267 76.2476 74.8C75.9809 74.5733 75.8142 74.2733 75.7476 73.9L75.6876 73.32C75.2209 73.9333 74.6542 74.4 73.9876 74.72C73.3209 75.04 72.6076 75.2 71.8476 75.2ZM72.6076 73.24C73.0609 73.24 73.4876 73.16 73.8876 73C74.3009 72.84 74.6209 72.6267 74.8476 72.36C75.1409 72.1333 75.2876 71.88 75.2876 71.6V70.4C74.9676 70.28 74.6209 70.1867 74.2476 70.12C73.8742 70.04 73.5142 70 73.1676 70C72.4742 70 71.9076 70.16 71.4676 70.48C71.0276 70.7867 70.8076 71.18 70.8076 71.66C70.8076 72.1133 70.9809 72.4933 71.3276 72.8C71.6742 73.0933 72.1009 73.24 72.6076 73.24ZM79.971 65.66C80.491 65.2067 81.0577 64.8733 81.671 64.66C82.2843 64.4467 82.911 64.34 83.551 64.34C84.0177 64.34 84.4577 64.4 84.871 64.52C85.2843 64.6267 85.6443 64.7933 85.951 65.02C86.271 65.2467 86.5177 65.5333 86.691 65.88C86.8777 66.2133 86.971 66.6 86.971 67.04C86.971 67.6 86.8177 68.0933 86.511 68.52C86.2177 68.9333 85.7977 69.1933 85.251 69.3C86.011 69.4467 86.5843 69.76 86.971 70.24C87.3577 70.7067 87.551 71.2933 87.551 72C87.551 72.48 87.4443 72.92 87.231 73.32C87.031 73.7067 86.751 74.04 86.391 74.32C86.031 74.6 85.5977 74.82 85.091 74.98C84.5977 75.1267 84.0577 75.2 83.471 75.2C82.6577 75.2 81.9177 75.0667 81.251 74.8C80.5843 74.5333 80.0443 74.16 79.631 73.68L80.911 71.96C81.1777 72.2933 81.5043 72.5467 81.891 72.72C82.291 72.88 82.7243 72.96 83.191 72.96C83.751 72.96 84.1843 72.8467 84.491 72.62C84.811 72.3933 84.971 72.0667 84.971 71.64C84.971 71.16 84.791 70.7933 84.431 70.54C84.0843 70.2733 83.491 70.14 82.651 70.14H81.831V68.6H82.631C83.271 68.6 83.7577 68.48 84.091 68.24C84.4377 67.9867 84.611 67.6667 84.611 67.28C84.611 66.9467 84.4843 66.6933 84.231 66.52C83.991 66.3467 83.671 66.26 83.271 66.26C82.9243 66.26 82.5577 66.34 82.171 66.5C81.7843 66.6467 81.431 66.8667 81.111 67.16L79.971 65.66ZM92.0196 68.48H96.1796V64.52H98.8396V75H96.1796V70.76H92.0196V75H89.3596V64.52H92.0196V68.48ZM101.332 64.52H103.992V67.84H105.752C106.326 67.84 106.852 67.92 107.332 68.08C107.826 68.2267 108.252 68.4533 108.612 68.76C108.972 69.0533 109.252 69.4267 109.452 69.88C109.666 70.32 109.772 70.8267 109.772 71.4C109.772 71.9867 109.672 72.5067 109.472 72.96C109.272 73.4 108.992 73.7733 108.632 74.08C108.286 74.3867 107.872 74.62 107.392 74.78C106.926 74.9267 106.412 75 105.852 75H101.332V64.52ZM110.912 64.52H113.552V75H110.912V64.52ZM105.572 72.9C106.026 72.9 106.386 72.78 106.652 72.54C106.919 72.2867 107.052 71.92 107.052 71.44C107.052 70.96 106.912 70.5933 106.632 70.34C106.352 70.0733 105.999 69.94 105.572 69.94H103.992V72.9H105.572ZM117.698 64.52L119.958 67.8L120.118 68.16L120.318 67.8L122.558 64.52H125.318L121.578 69.78L125.378 75H122.618L120.298 71.74L120.118 71.4L119.958 71.74L117.658 75H114.898L118.678 69.78L114.958 64.52H117.698ZM136.648 63.34C135.808 63.5267 135.141 63.8867 134.648 64.42C134.168 64.9533 133.841 65.72 133.668 66.72C134.081 66.2133 134.581 65.8267 135.168 65.56C135.755 65.28 136.415 65.14 137.148 65.14C137.788 65.14 138.388 65.2667 138.948 65.52C139.508 65.7733 139.995 66.12 140.408 66.56C140.835 67 141.168 67.52 141.408 68.12C141.661 68.72 141.788 69.3667 141.788 70.06C141.788 70.78 141.661 71.4533 141.408 72.08C141.168 72.7067 140.815 73.2533 140.348 73.72C139.895 74.1733 139.335 74.5333 138.668 74.8C138.001 75.0667 137.248 75.2 136.408 75.2C134.675 75.2 133.361 74.66 132.468 73.58C131.575 72.4867 131.128 70.8933 131.128 68.8C131.128 67.6133 131.241 66.58 131.468 65.7C131.695 64.8067 132.035 64.0533 132.488 63.44C132.955 62.8133 133.528 62.3067 134.208 61.92C134.901 61.5333 135.701 61.24 136.608 61.04L140.488 60.18L140.668 62.44L136.648 63.34ZM133.868 70C133.868 70.44 133.935 70.84 134.068 71.2C134.201 71.56 134.381 71.8733 134.608 72.14C134.835 72.3933 135.108 72.5933 135.428 72.74C135.748 72.8867 136.101 72.96 136.488 72.96C137.248 72.96 137.861 72.7 138.328 72.18C138.795 71.6467 139.028 70.9467 139.028 70.08C139.028 69.28 138.788 68.6333 138.308 68.14C137.828 67.6333 137.195 67.38 136.408 67.38C135.661 67.38 135.048 67.62 134.568 68.1C134.101 68.58 133.868 69.2133 133.868 70ZM142.381 72.72C142.767 72.6933 143.081 72.6133 143.321 72.48C143.574 72.3467 143.781 72.1 143.941 71.74C144.114 71.38 144.254 70.8867 144.361 70.26C144.481 69.62 144.601 68.7867 144.721 67.76L145.081 64.52H152.421V75H149.761V66.76H147.421L147.221 68.34C147.061 69.66 146.867 70.7533 146.641 71.62C146.414 72.4733 146.121 73.1533 145.761 73.66C145.414 74.1667 144.981 74.5267 144.461 74.74C143.941 74.94 143.301 75.0533 142.541 75.08L142.381 72.72ZM158.986 68.52C159.092 67.88 159.286 67.3 159.566 66.78C159.859 66.26 160.212 65.82 160.626 65.46C161.052 65.0867 161.532 64.8067 162.066 64.62C162.612 64.42 163.199 64.32 163.826 64.32C164.572 64.32 165.252 64.46 165.866 64.74C166.479 65.0067 166.999 65.38 167.426 65.86C167.866 66.34 168.199 66.92 168.426 67.6C168.666 68.2667 168.786 69 168.786 69.8C168.786 70.64 168.659 71.4 168.406 72.08C168.152 72.7467 167.806 73.3133 167.366 73.78C166.926 74.2333 166.399 74.5867 165.786 74.84C165.186 75.08 164.526 75.2 163.806 75.2C163.139 75.2 162.532 75.1 161.986 74.9C161.439 74.6867 160.952 74.3933 160.526 74.02C160.112 73.6333 159.766 73.1733 159.486 72.64C159.219 72.1067 159.039 71.5067 158.946 70.84H157.586V75H154.926V64.52H157.586V68.52H158.986ZM161.446 69.76C161.446 70.8 161.652 71.58 162.066 72.1C162.492 72.6067 163.066 72.86 163.786 72.86C164.546 72.86 165.139 72.5933 165.566 72.06C165.992 71.5133 166.206 70.74 166.206 69.74C166.206 68.7267 165.986 67.96 165.546 67.44C165.106 66.92 164.526 66.66 163.806 66.66C163.059 66.66 162.479 66.9333 162.066 67.48C161.652 68.0133 161.446 68.7733 161.446 69.76ZM169.239 72.68H169.799C170.119 72.64 170.379 72.54 170.579 72.38C170.793 72.2067 170.973 71.94 171.119 71.58C171.279 71.2067 171.406 70.7133 171.499 70.1C171.606 69.4867 171.713 68.7067 171.819 67.76L172.179 64.52H179.519V72.68H180.919V78H178.539V75H171.539V78H169.239V72.68ZM176.859 72.68V66.76H174.519L174.319 68.34C174.186 69.42 174.019 70.3 173.819 70.98C173.633 71.66 173.393 72.2267 173.099 72.68H176.859ZM193.802 64.52C194.189 64.52 194.542 64.5933 194.862 64.74C195.182 64.8733 195.456 65.06 195.682 65.3C195.922 65.54 196.102 65.82 196.222 66.14C196.356 66.46 196.422 66.8 196.422 67.16C196.422 67.6133 196.302 68.0733 196.062 68.54C195.822 68.9933 195.429 69.3333 194.882 69.56C195.496 69.7333 195.976 70.0333 196.322 70.46C196.682 70.8733 196.862 71.44 196.862 72.16C196.862 73.12 196.529 73.8333 195.862 74.3C195.196 74.7667 194.276 75 193.102 75H187.602V64.52H193.802ZM192.542 68.9C192.916 68.9 193.216 68.7933 193.442 68.58C193.669 68.3667 193.782 68.06 193.782 67.66C193.782 67.3267 193.682 67.0467 193.482 66.82C193.296 66.58 193.009 66.46 192.622 66.46H190.262V68.9H192.542ZM192.902 73.06C193.289 73.06 193.596 72.9333 193.822 72.68C194.062 72.4267 194.182 72.12 194.182 71.76C194.182 71.3867 194.069 71.08 193.842 70.84C193.616 70.5867 193.309 70.46 192.922 70.46H190.262V73.06H192.902ZM18.1591 101.2C17.3325 101.2 16.6125 101.02 15.9991 100.66C15.3858 100.287 14.9058 99.7867 14.5591 99.16V105.26H11.8791V90.52H14.2191V92.32C14.6058 91.7067 15.1058 91.2267 15.7191 90.88C16.3325 90.52 17.0391 90.34 17.8391 90.34C18.5458 90.34 19.1991 90.4867 19.7991 90.78C20.3991 91.06 20.9125 91.4467 21.3391 91.94C21.7791 92.42 22.1191 92.9933 22.3591 93.66C22.6125 94.3133 22.7391 95.0067 22.7391 95.74C22.7391 96.5 22.6258 97.2133 22.3991 97.88C22.1725 98.5467 21.8525 99.1267 21.4391 99.62C21.0391 100.113 20.5591 100.5 19.9991 100.78C19.4391 101.06 18.8258 101.2 18.1591 101.2ZM17.2591 98.92C17.6591 98.92 18.0258 98.8333 18.3591 98.66C18.7058 98.4867 18.9991 98.2533 19.2391 97.96C19.4791 97.6667 19.6658 97.3267 19.7991 96.94C19.9325 96.5533 19.9991 96.1533 19.9991 95.74C19.9991 95.3 19.9258 94.8933 19.7791 94.52C19.6325 94.1333 19.4258 93.8 19.1591 93.52C18.9058 93.24 18.5991 93.02 18.2391 92.86C17.8925 92.7 17.5125 92.62 17.0991 92.62C16.8458 92.62 16.5858 92.6667 16.3191 92.76C16.0525 92.84 15.8058 92.96 15.5791 93.12C15.3525 93.28 15.1458 93.4667 14.9591 93.68C14.7858 93.8933 14.6525 94.1267 14.5591 94.38V96.84C14.7991 97.44 15.1658 97.94 15.6591 98.34C16.1525 98.7267 16.6858 98.92 17.2591 98.92ZM27.3945 101.2C26.8878 101.2 26.4145 101.12 25.9745 100.96C25.5345 100.787 25.1545 100.553 24.8345 100.26C24.5145 99.9533 24.2611 99.6 24.0745 99.2C23.9011 98.8 23.8145 98.36 23.8145 97.88C23.8145 97.3867 23.9211 96.9333 24.1345 96.52C24.3611 96.0933 24.6678 95.7333 25.0545 95.44C25.4545 95.1467 25.9278 94.92 26.4745 94.76C27.0211 94.5867 27.6211 94.5 28.2745 94.5C28.7411 94.5 29.1945 94.54 29.6345 94.62C30.0878 94.7 30.4878 94.8133 30.8345 94.96V94.36C30.8345 93.6667 30.6345 93.1333 30.2345 92.76C29.8478 92.3867 29.2678 92.2 28.4945 92.2C27.9345 92.2 27.3878 92.3 26.8545 92.5C26.3211 92.7 25.7745 92.9933 25.2145 93.38L24.3945 91.68C25.7411 90.7867 27.1945 90.34 28.7545 90.34C30.2611 90.34 31.4278 90.7133 32.2545 91.46C33.0945 92.1933 33.5145 93.26 33.5145 94.66V97.92C33.5145 98.2 33.5611 98.4 33.6545 98.52C33.7611 98.64 33.9278 98.7067 34.1545 98.72V101C33.7011 101.093 33.3078 101.14 32.9745 101.14C32.4678 101.14 32.0745 101.027 31.7945 100.8C31.5278 100.573 31.3611 100.273 31.2945 99.9L31.2345 99.32C30.7678 99.9333 30.2011 100.4 29.5345 100.72C28.8678 101.04 28.1545 101.2 27.3945 101.2ZM28.1545 99.24C28.6078 99.24 29.0345 99.16 29.4345 99C29.8478 98.84 30.1678 98.6267 30.3945 98.36C30.6878 98.1333 30.8345 97.88 30.8345 97.6V96.4C30.5145 96.28 30.1678 96.1867 29.7945 96.12C29.4211 96.04 29.0611 96 28.7145 96C28.0211 96 27.4545 96.16 27.0145 96.48C26.5745 96.7867 26.3545 97.18 26.3545 97.66C26.3545 98.1133 26.5278 98.4933 26.8745 98.8C27.2211 99.0933 27.6478 99.24 28.1545 99.24ZM41.9579 96.1L45.0579 90.52H47.7979V101H45.2379V94.7L42.5779 99.42H41.3179L38.6579 94.7V101H36.0979V90.52H38.8579L41.9579 96.1ZM56.7366 90.52H59.6166L55.5366 95.6L59.9366 101H56.8966L53.6566 96.96H52.9566V101H50.3166V90.52H52.9566V94.68H53.5566L56.7366 90.52ZM63.8202 101.2C63.3136 101.2 62.8402 101.12 62.4002 100.96C61.9602 100.787 61.5802 100.553 61.2602 100.26C60.9402 99.9533 60.6869 99.6 60.5002 99.2C60.3269 98.8 60.2402 98.36 60.2402 97.88C60.2402 97.3867 60.3469 96.9333 60.5602 96.52C60.7869 96.0933 61.0936 95.7333 61.4802 95.44C61.8802 95.1467 62.3536 94.92 62.9002 94.76C63.4469 94.5867 64.0469 94.5 64.7002 94.5C65.1669 94.5 65.6202 94.54 66.0602 94.62C66.5136 94.7 66.9136 94.8133 67.2602 94.96V94.36C67.2602 93.6667 67.0602 93.1333 66.6602 92.76C66.2736 92.3867 65.6936 92.2 64.9202 92.2C64.3602 92.2 63.8136 92.3 63.2802 92.5C62.7469 92.7 62.2002 92.9933 61.6402 93.38L60.8202 91.68C62.1669 90.7867 63.6202 90.34 65.1802 90.34C66.6869 90.34 67.8536 90.7133 68.6802 91.46C69.5202 92.1933 69.9402 93.26 69.9402 94.66V97.92C69.9402 98.2 69.9869 98.4 70.0802 98.52C70.1869 98.64 70.3536 98.7067 70.5802 98.72V101C70.1269 101.093 69.7336 101.14 69.4002 101.14C68.8936 101.14 68.5002 101.027 68.2202 100.8C67.9536 100.573 67.7869 100.273 67.7202 99.9L67.6602 99.32C67.1936 99.9333 66.6269 100.4 65.9602 100.72C65.2936 101.04 64.5802 101.2 63.8202 101.2ZM64.5802 99.24C65.0336 99.24 65.4602 99.16 65.8602 99C66.2736 98.84 66.5936 98.6267 66.8202 98.36C67.1136 98.1333 67.2602 97.88 67.2602 97.6V96.4C66.9402 96.28 66.5936 96.1867 66.2202 96.12C65.8469 96.04 65.4869 96 65.1402 96C64.4469 96 63.8802 96.16 63.4402 96.48C63.0002 96.7867 62.7802 97.18 62.7802 97.66C62.7802 98.1133 62.9536 98.4933 63.3002 98.8C63.6469 99.0933 64.0736 99.24 64.5802 99.24ZM74.1437 90.52L76.4037 93.8L76.5637 94.16L76.7637 93.8L79.0037 90.52H81.7637L78.0237 95.78L81.8237 101H79.0637L76.7437 97.74L76.5637 97.4L76.4037 97.74L74.1037 101H71.3437L75.1237 95.78L71.4037 90.52H74.1437ZM92.7534 101.2C91.9 101.2 91.1334 101.053 90.4534 100.76C89.7734 100.467 89.1934 100.073 88.7134 99.58C88.2467 99.0733 87.8867 98.4933 87.6334 97.84C87.38 97.1867 87.2534 96.5 87.2534 95.78C87.2534 95.0467 87.38 94.3533 87.6334 93.7C87.8867 93.0467 88.2467 92.4733 88.7134 91.98C89.1934 91.4733 89.7734 91.0733 90.4534 90.78C91.1334 90.4867 91.9 90.34 92.7534 90.34C93.6067 90.34 94.3667 90.4867 95.0334 90.78C95.7134 91.0733 96.2867 91.4733 96.7534 91.98C97.2334 92.4733 97.6 93.0467 97.8534 93.7C98.1067 94.3533 98.2334 95.0467 98.2334 95.78C98.2334 96.5 98.1067 97.1867 97.8534 97.84C97.6 98.4933 97.24 99.0733 96.7734 99.58C96.3067 100.073 95.7334 100.467 95.0534 100.76C94.3734 101.053 93.6067 101.2 92.7534 101.2ZM90.0134 95.78C90.0134 96.2467 90.08 96.6733 90.2134 97.06C90.36 97.4333 90.5534 97.76 90.7934 98.04C91.0467 98.32 91.34 98.54 91.6734 98.7C92.0067 98.8467 92.3667 98.92 92.7534 98.92C93.14 98.92 93.5 98.8467 93.8334 98.7C94.1667 98.54 94.4534 98.32 94.6934 98.04C94.9467 97.76 95.14 97.4267 95.2734 97.04C95.42 96.6533 95.4934 96.2267 95.4934 95.76C95.4934 95.3067 95.42 94.8867 95.2734 94.5C95.14 94.1133 94.9467 93.78 94.6934 93.5C94.4534 93.22 94.1667 93.0067 93.8334 92.86C93.5 92.7 93.14 92.62 92.7534 92.62C92.3667 92.62 92.0067 92.7 91.6734 92.86C91.34 93.02 91.0467 93.24 90.7934 93.52C90.5534 93.8 90.36 94.1333 90.2134 94.52C90.08 94.9067 90.0134 95.3267 90.0134 95.78ZM98.673 98.68H99.233C99.553 98.64 99.813 98.54 100.013 98.38C100.226 98.2067 100.406 97.94 100.553 97.58C100.713 97.2067 100.84 96.7133 100.933 96.1C101.04 95.4867 101.146 94.7067 101.253 93.76L101.613 90.52H108.953V98.68H110.353V104H107.973V101H100.973V104H98.673V98.68ZM106.293 98.68V92.76H103.953L103.753 94.34C103.62 95.42 103.453 96.3 103.253 96.98C103.066 97.66 102.826 98.2267 102.533 98.68H106.293ZM114.871 94.48H119.031V90.52H121.691V101H119.031V96.76H114.871V101H112.211V90.52H114.871V94.48ZM128.984 101.2C128.13 101.2 127.364 101.053 126.684 100.76C126.004 100.467 125.424 100.073 124.944 99.58C124.477 99.0733 124.117 98.4933 123.864 97.84C123.61 97.1867 123.484 96.5 123.484 95.78C123.484 95.0467 123.61 94.3533 123.864 93.7C124.117 93.0467 124.477 92.4733 124.944 91.98C125.424 91.4733 126.004 91.0733 126.684 90.78C127.364 90.4867 128.13 90.34 128.984 90.34C129.837 90.34 130.597 90.4867 131.264 90.78C131.944 91.0733 132.517 91.4733 132.984 91.98C133.464 92.4733 133.83 93.0467 134.084 93.7C134.337 94.3533 134.464 95.0467 134.464 95.78C134.464 96.5 134.337 97.1867 134.084 97.84C133.83 98.4933 133.47 99.0733 133.004 99.58C132.537 100.073 131.964 100.467 131.284 100.76C130.604 101.053 129.837 101.2 128.984 101.2ZM126.244 95.78C126.244 96.2467 126.31 96.6733 126.444 97.06C126.59 97.4333 126.784 97.76 127.024 98.04C127.277 98.32 127.57 98.54 127.904 98.7C128.237 98.8467 128.597 98.92 128.984 98.92C129.37 98.92 129.73 98.8467 130.064 98.7C130.397 98.54 130.684 98.32 130.924 98.04C131.177 97.76 131.37 97.4267 131.504 97.04C131.65 96.6533 131.724 96.2267 131.724 95.76C131.724 95.3067 131.65 94.8867 131.504 94.5C131.37 94.1133 131.177 93.78 130.924 93.5C130.684 93.22 130.397 93.0067 130.064 92.86C129.73 92.7 129.37 92.62 128.984 92.62C128.597 92.62 128.237 92.7 127.904 92.86C127.57 93.02 127.277 93.24 127.024 93.52C126.784 93.8 126.59 94.1333 126.444 94.52C126.31 94.9067 126.244 95.3267 126.244 95.78ZM143.353 92.74H138.973V101H136.313V90.52H143.353V92.74ZM149.14 101.2C148.287 101.2 147.52 101.053 146.84 100.76C146.16 100.467 145.58 100.073 145.1 99.58C144.633 99.0733 144.273 98.4933 144.02 97.84C143.767 97.1867 143.64 96.5 143.64 95.78C143.64 95.0467 143.767 94.3533 144.02 93.7C144.273 93.0467 144.633 92.4733 145.1 91.98C145.58 91.4733 146.16 91.0733 146.84 90.78C147.52 90.4867 148.287 90.34 149.14 90.34C149.993 90.34 150.753 90.4867 151.42 90.78C152.1 91.0733 152.673 91.4733 153.14 91.98C153.62 92.4733 153.987 93.0467 154.24 93.7C154.493 94.3533 154.62 95.0467 154.62 95.78C154.62 96.5 154.493 97.1867 154.24 97.84C153.987 98.4933 153.627 99.0733 153.16 99.58C152.693 100.073 152.12 100.467 151.44 100.76C150.76 101.053 149.993 101.2 149.14 101.2ZM146.4 95.78C146.4 96.2467 146.467 96.6733 146.6 97.06C146.747 97.4333 146.94 97.76 147.18 98.04C147.433 98.32 147.727 98.54 148.06 98.7C148.393 98.8467 148.753 98.92 149.14 98.92C149.527 98.92 149.887 98.8467 150.22 98.7C150.553 98.54 150.84 98.32 151.08 98.04C151.333 97.76 151.527 97.4267 151.66 97.04C151.807 96.6533 151.88 96.2267 151.88 95.76C151.88 95.3067 151.807 94.8867 151.66 94.5C151.527 94.1133 151.333 93.78 151.08 93.5C150.84 93.22 150.553 93.0067 150.22 92.86C149.887 92.7 149.527 92.62 149.14 92.62C148.753 92.62 148.393 92.7 148.06 92.86C147.727 93.02 147.433 93.24 147.18 93.52C146.94 93.8 146.747 94.1333 146.6 94.52C146.467 94.9067 146.4 95.3267 146.4 95.78ZM167.134 96.1L170.234 90.52H172.974V101H170.414V94.7L167.754 99.42H166.494L163.834 94.7V101H161.274V90.52H164.034L167.134 96.1ZM180.312 101.2C179.472 101.2 178.712 101.06 178.032 100.78C177.352 100.487 176.772 100.093 176.292 99.6C175.812 99.1067 175.439 98.5333 175.172 97.88C174.919 97.2267 174.792 96.54 174.792 95.82C174.792 95.0733 174.919 94.3733 175.172 93.72C175.426 93.0533 175.792 92.4733 176.272 91.98C176.752 91.4733 177.332 91.0733 178.012 90.78C178.706 90.4867 179.479 90.34 180.332 90.34C181.186 90.34 181.946 90.4867 182.612 90.78C183.292 91.0733 183.866 91.4667 184.332 91.96C184.812 92.4533 185.172 93.0267 185.412 93.68C185.666 94.3333 185.792 95.0133 185.792 95.72C185.792 95.8933 185.786 96.06 185.772 96.22C185.772 96.38 185.759 96.5133 185.732 96.62H177.632C177.672 97.0333 177.772 97.4 177.932 97.72C178.092 98.04 178.299 98.3133 178.552 98.54C178.806 98.7667 179.092 98.94 179.412 99.06C179.732 99.18 180.066 99.24 180.412 99.24C180.946 99.24 181.446 99.1133 181.912 98.86C182.392 98.5933 182.719 98.2467 182.892 97.82L185.192 98.46C184.806 99.26 184.186 99.92 183.332 100.44C182.492 100.947 181.486 101.2 180.312 101.2ZM183.032 94.88C182.966 94.0933 182.672 93.4667 182.152 93C181.646 92.52 181.026 92.28 180.292 92.28C179.932 92.28 179.592 92.3467 179.272 92.48C178.966 92.6 178.692 92.7733 178.452 93C178.212 93.2267 178.012 93.5 177.852 93.82C177.706 94.14 177.619 94.4933 177.592 94.88H183.032ZM190.125 94.48H194.285V90.52H196.945V101H194.285V96.76H190.125V101H187.465V90.52H190.125V94.48ZM203.478 94.52C203.584 93.88 203.778 93.3 204.058 92.78C204.351 92.26 204.704 91.82 205.118 91.46C205.544 91.0867 206.024 90.8067 206.558 90.62C207.104 90.42 207.691 90.32 208.318 90.32C209.064 90.32 209.744 90.46 210.358 90.74C210.971 91.0067 211.491 91.38 211.918 91.86C212.358 92.34 212.691 92.92 212.918 93.6C213.158 94.2667 213.278 95 213.278 95.8C213.278 96.64 213.151 97.4 212.898 98.08C212.644 98.7467 212.298 99.3133 211.858 99.78C211.418 100.233 210.891 100.587 210.278 100.84C209.678 101.08 209.018 101.2 208.298 101.2C207.631 101.2 207.024 101.1 206.478 100.9C205.931 100.687 205.444 100.393 205.018 100.02C204.604 99.6333 204.258 99.1733 203.978 98.64C203.711 98.1067 203.531 97.5067 203.438 96.84H202.078V101H199.418V90.52H202.078V94.52H203.478ZM205.938 95.76C205.938 96.8 206.144 97.58 206.558 98.1C206.984 98.6067 207.558 98.86 208.278 98.86C209.038 98.86 209.631 98.5933 210.058 98.06C210.484 97.5133 210.698 96.74 210.698 95.74C210.698 94.7267 210.478 93.96 210.038 93.44C209.598 92.92 209.018 92.66 208.298 92.66C207.551 92.66 206.971 92.9333 206.558 93.48C206.144 94.0133 205.938 94.7733 205.938 95.76Z" fill="white"/>
<defs>
<clipPath id="clip0">
<rect width="64" height="45" fill="white" transform="translate(80.25)"/>
</clipPath>
</defs>
</svg>
