<svg width="224" height="94" viewBox="0 0 224 94" fill="none" xmlns="http://www.w3.org/2000/svg">
<g clip-path="url(#clip0)">
<path d="M112.25 0C96.2547 0 83.25 13.0047 83.25 29C83.25 44.9953 96.2547 58 112.25 58C128.245 58 141.25 44.9953 141.25 29C141.25 13.0047 128.245 0 112.25 0ZM112.25 53.1629C98.9281 53.1629 88.0871 42.3219 88.0871 29C88.0871 23.2 90.1375 17.8871 93.5473 13.7184L100.854 21.025C100.423 21.8633 100.174 22.8035 100.174 23.8004V45.9242C100.174 48.5863 102.338 50.7613 105.011 50.7613H119.511C122.173 50.7613 124.348 48.5977 124.348 45.9242V44.5082L127.554 47.7141C123.363 51.1125 118.05 53.1629 112.25 53.1629ZM108.625 14.8738V14.5H115.875V14.8738C115.875 17.3434 117.359 19.541 119.659 20.4586C121.029 21.0023 121.924 22.3164 121.924 23.8004V26.5758C117.438 26.4965 115.025 25.9754 112.522 25.409C112.341 25.3637 112.148 25.3297 111.955 25.2844L106.303 19.6316C107.741 18.5102 108.625 16.777 108.625 14.8738ZM102.587 24.1855V23.8004C102.587 23.4832 102.644 23.1887 102.723 22.8941L104.06 24.2309C103.595 24.2082 103.097 24.1969 102.587 24.1855ZM130.953 44.2816L124.337 37.666V23.8004C124.337 21.3309 122.853 19.1332 120.554 18.2156C119.183 17.6719 118.288 16.3578 118.288 14.8738V14.5C118.956 14.5 119.5 13.9563 119.5 13.2879V8.46211C119.5 7.79375 118.956 7.25 118.288 7.25H106.212C105.544 7.25 105 7.79375 105 8.46211V13.2992C105 13.9676 105.544 14.5113 106.212 14.5113V14.8852C106.212 16.1312 105.555 17.2301 104.536 17.8758L96.9684 10.3086C101.137 6.89883 106.461 4.84844 112.25 4.84844C125.572 4.84844 136.413 15.6895 136.413 29.0113C136.413 34.8 134.362 40.1129 130.953 44.2816Z" fill="white"/>
</g>
<path d="M55.0986 73.8H65.4786V76.22H57.8386V79.48H61.7586C62.4519 79.48 63.0786 79.5733 63.6386 79.76C64.2119 79.9467 64.6986 80.22 65.0986 80.58C65.5119 80.94 65.8253 81.38 66.0386 81.9C66.2653 82.42 66.3786 83.02 66.3786 83.7C66.3786 85.0867 65.9653 86.1533 65.1386 86.9C64.3253 87.6333 63.2319 88 61.8586 88H55.0986V73.8ZM61.5986 85.66C62.2519 85.66 62.7453 85.4867 63.0786 85.14C63.4119 84.78 63.5786 84.2933 63.5786 83.68C63.5786 83.0933 63.4119 82.62 63.0786 82.26C62.7453 81.9 62.2519 81.72 61.5986 81.72H57.8386V85.66H61.5986ZM72.998 88.2C72.158 88.2 71.398 88.06 70.718 87.78C70.038 87.4867 69.458 87.0933 68.978 86.6C68.498 86.1067 68.1246 85.5333 67.858 84.88C67.6046 84.2267 67.478 83.54 67.478 82.82C67.478 82.0733 67.6046 81.3733 67.858 80.72C68.1113 80.0533 68.478 79.4733 68.958 78.98C69.438 78.4733 70.018 78.0733 70.698 77.78C71.3913 77.4867 72.1646 77.34 73.018 77.34C73.8713 77.34 74.6313 77.4867 75.298 77.78C75.978 78.0733 76.5513 78.4667 77.018 78.96C77.498 79.4533 77.858 80.0267 78.098 80.68C78.3513 81.3333 78.478 82.0133 78.478 82.72C78.478 82.8933 78.4713 83.06 78.458 83.22C78.458 83.38 78.4446 83.5133 78.418 83.62H70.318C70.358 84.0333 70.458 84.4 70.618 84.72C70.778 85.04 70.9846 85.3133 71.238 85.54C71.4913 85.7667 71.778 85.94 72.098 86.06C72.418 86.18 72.7513 86.24 73.098 86.24C73.6313 86.24 74.1313 86.1133 74.598 85.86C75.078 85.5933 75.4046 85.2467 75.578 84.82L77.878 85.46C77.4913 86.26 76.8713 86.92 76.018 87.44C75.178 87.9467 74.1713 88.2 72.998 88.2ZM75.718 81.88C75.6513 81.0933 75.358 80.4667 74.838 80C74.3313 79.52 73.7113 79.28 72.978 79.28C72.618 79.28 72.278 79.3467 71.958 79.48C71.6513 79.6 71.378 79.7733 71.138 80C70.898 80.2267 70.698 80.5 70.538 80.82C70.3913 81.14 70.3046 81.4933 70.278 81.88H75.718ZM79.4144 78.66C79.9344 78.2067 80.501 77.8733 81.1144 77.66C81.7277 77.4467 82.3544 77.34 82.9944 77.34C83.461 77.34 83.901 77.4 84.3144 77.52C84.7277 77.6267 85.0877 77.7933 85.3944 78.02C85.7144 78.2467 85.961 78.5333 86.1344 78.88C86.321 79.2133 86.4144 79.6 86.4144 80.04C86.4144 80.6 86.261 81.0933 85.9544 81.52C85.661 81.9333 85.241 82.1933 84.6944 82.3C85.4544 82.4467 86.0277 82.76 86.4144 83.24C86.801 83.7067 86.9944 84.2933 86.9944 85C86.9944 85.48 86.8877 85.92 86.6744 86.32C86.4744 86.7067 86.1944 87.04 85.8344 87.32C85.4744 87.6 85.041 87.82 84.5344 87.98C84.041 88.1267 83.501 88.2 82.9144 88.2C82.101 88.2 81.361 88.0667 80.6944 87.8C80.0277 87.5333 79.4877 87.16 79.0744 86.68L80.3544 84.96C80.621 85.2933 80.9477 85.5467 81.3344 85.72C81.7344 85.88 82.1677 85.96 82.6344 85.96C83.1944 85.96 83.6277 85.8467 83.9344 85.62C84.2544 85.3933 84.4144 85.0667 84.4144 84.64C84.4144 84.16 84.2344 83.7933 83.8744 83.54C83.5277 83.2733 82.9344 83.14 82.0944 83.14H81.2744V81.6H82.0744C82.7144 81.6 83.201 81.48 83.5344 81.24C83.881 80.9867 84.0544 80.6667 84.0544 80.28C84.0544 79.9467 83.9277 79.6933 83.6744 79.52C83.4344 79.3467 83.1144 79.26 82.7144 79.26C82.3677 79.26 82.001 79.34 81.6144 79.5C81.2277 79.6467 80.8744 79.8667 80.5544 80.16L79.4144 78.66ZM92.5077 85.72C92.8943 85.6933 93.2077 85.6133 93.4477 85.48C93.701 85.3467 93.9077 85.1 94.0677 84.74C94.241 84.38 94.381 83.8867 94.4877 83.26C94.6077 82.62 94.7277 81.7867 94.8477 80.76L95.2077 77.52H102.548V88H99.8877V79.76H97.5477L97.3477 81.34C97.1877 82.66 96.9943 83.7533 96.7677 84.62C96.541 85.4733 96.2477 86.1533 95.8877 86.66C95.541 87.1667 95.1077 87.5267 94.5877 87.74C94.0677 87.94 93.4277 88.0533 92.6677 88.08L92.5077 85.72ZM107.893 88.2C107.386 88.2 106.913 88.12 106.473 87.96C106.033 87.7867 105.653 87.5533 105.333 87.26C105.013 86.9533 104.759 86.6 104.573 86.2C104.399 85.8 104.313 85.36 104.313 84.88C104.313 84.3867 104.419 83.9333 104.633 83.52C104.859 83.0933 105.166 82.7333 105.553 82.44C105.953 82.1467 106.426 81.92 106.973 81.76C107.519 81.5867 108.119 81.5 108.773 81.5C109.239 81.5 109.693 81.54 110.133 81.62C110.586 81.7 110.986 81.8133 111.333 81.96V81.36C111.333 80.6667 111.133 80.1333 110.733 79.76C110.346 79.3867 109.766 79.2 108.993 79.2C108.433 79.2 107.886 79.3 107.353 79.5C106.819 79.7 106.273 79.9933 105.713 80.38L104.893 78.68C106.239 77.7867 107.693 77.34 109.253 77.34C110.759 77.34 111.926 77.7133 112.753 78.46C113.593 79.1933 114.013 80.26 114.013 81.66V84.92C114.013 85.2 114.059 85.4 114.153 85.52C114.259 85.64 114.426 85.7067 114.653 85.72V88C114.199 88.0933 113.806 88.14 113.473 88.14C112.966 88.14 112.573 88.0267 112.293 87.8C112.026 87.5733 111.859 87.2733 111.793 86.9L111.733 86.32C111.266 86.9333 110.699 87.4 110.033 87.72C109.366 88.04 108.653 88.2 107.893 88.2ZM108.653 86.24C109.106 86.24 109.533 86.16 109.933 86C110.346 85.84 110.666 85.6267 110.893 85.36C111.186 85.1333 111.333 84.88 111.333 84.6V83.4C111.013 83.28 110.666 83.1867 110.293 83.12C109.919 83.04 109.559 83 109.213 83C108.519 83 107.953 83.16 107.513 83.48C107.073 83.7867 106.853 84.18 106.853 84.66C106.853 85.1133 107.026 85.4933 107.373 85.8C107.719 86.0933 108.146 86.24 108.653 86.24ZM123.016 77.52H125.896L121.816 82.6L126.216 88H123.176L119.936 83.96H119.236V88H116.596V77.52H119.236V81.68H119.836L123.016 77.52ZM132.397 88H129.737V79.84H126.457V77.52H135.657V79.84H132.397V88ZM141.552 88.2C140.699 88.2 139.932 88.0533 139.252 87.76C138.572 87.4667 137.992 87.0733 137.512 86.58C137.046 86.0733 136.686 85.4933 136.432 84.84C136.179 84.1867 136.052 83.5 136.052 82.78C136.052 82.0467 136.179 81.3533 136.432 80.7C136.686 80.0467 137.046 79.4733 137.512 78.98C137.992 78.4733 138.572 78.0733 139.252 77.78C139.932 77.4867 140.699 77.34 141.552 77.34C142.406 77.34 143.166 77.4867 143.832 77.78C144.512 78.0733 145.086 78.4733 145.552 78.98C146.032 79.4733 146.399 80.0467 146.652 80.7C146.906 81.3533 147.032 82.0467 147.032 82.78C147.032 83.5 146.906 84.1867 146.652 84.84C146.399 85.4933 146.039 86.0733 145.572 86.58C145.106 87.0733 144.532 87.4667 143.852 87.76C143.172 88.0533 142.406 88.2 141.552 88.2ZM138.812 82.78C138.812 83.2467 138.879 83.6733 139.012 84.06C139.159 84.4333 139.352 84.76 139.592 85.04C139.846 85.32 140.139 85.54 140.472 85.7C140.806 85.8467 141.166 85.92 141.552 85.92C141.939 85.92 142.299 85.8467 142.632 85.7C142.966 85.54 143.252 85.32 143.492 85.04C143.746 84.76 143.939 84.4267 144.072 84.04C144.219 83.6533 144.292 83.2267 144.292 82.76C144.292 82.3067 144.219 81.8867 144.072 81.5C143.939 81.1133 143.746 80.78 143.492 80.5C143.252 80.22 142.966 80.0067 142.632 79.86C142.299 79.7 141.939 79.62 141.552 79.62C141.166 79.62 140.806 79.7 140.472 79.86C140.139 80.02 139.846 80.24 139.592 80.52C139.352 80.8 139.159 81.1333 139.012 81.52C138.879 81.9067 138.812 82.3267 138.812 82.78ZM148.067 78.66C148.587 78.2067 149.153 77.8733 149.767 77.66C150.38 77.4467 151.007 77.34 151.647 77.34C152.113 77.34 152.553 77.4 152.967 77.52C153.38 77.6267 153.74 77.7933 154.047 78.02C154.367 78.2467 154.613 78.5333 154.787 78.88C154.973 79.2133 155.067 79.6 155.067 80.04C155.067 80.6 154.913 81.0933 154.607 81.52C154.313 81.9333 153.893 82.1933 153.347 82.3C154.107 82.4467 154.68 82.76 155.067 83.24C155.453 83.7067 155.647 84.2933 155.647 85C155.647 85.48 155.54 85.92 155.327 86.32C155.127 86.7067 154.847 87.04 154.487 87.32C154.127 87.6 153.693 87.82 153.187 87.98C152.693 88.1267 152.153 88.2 151.567 88.2C150.753 88.2 150.013 88.0667 149.347 87.8C148.68 87.5333 148.14 87.16 147.727 86.68L149.007 84.96C149.273 85.2933 149.6 85.5467 149.987 85.72C150.387 85.88 150.82 85.96 151.287 85.96C151.847 85.96 152.28 85.8467 152.587 85.62C152.907 85.3933 153.067 85.0667 153.067 84.64C153.067 84.16 152.887 83.7933 152.527 83.54C152.18 83.2733 151.587 83.14 150.747 83.14H149.927V81.6H150.727C151.367 81.6 151.853 81.48 152.187 81.24C152.533 80.9867 152.707 80.6667 152.707 80.28C152.707 79.9467 152.58 79.6933 152.327 79.52C152.087 79.3467 151.767 79.26 151.367 79.26C151.02 79.26 150.653 79.34 150.267 79.5C149.88 79.6467 149.527 79.8667 149.207 80.16L148.067 78.66ZM157.455 77.52H160.115V80.84H161.875C162.449 80.84 162.975 80.92 163.455 81.08C163.949 81.2267 164.375 81.4533 164.735 81.76C165.095 82.0533 165.375 82.4267 165.575 82.88C165.789 83.32 165.895 83.8267 165.895 84.4C165.895 84.9867 165.795 85.5067 165.595 85.96C165.395 86.4 165.115 86.7733 164.755 87.08C164.409 87.3867 163.995 87.62 163.515 87.78C163.049 87.9267 162.535 88 161.975 88H157.455V77.52ZM167.035 77.52H169.675V88H167.035V77.52ZM161.695 85.9C162.149 85.9 162.509 85.78 162.775 85.54C163.042 85.2867 163.175 84.92 163.175 84.44C163.175 83.96 163.035 83.5933 162.755 83.34C162.475 83.0733 162.122 82.94 161.695 82.94H160.115V85.9H161.695Z" fill="white"/>
<defs>
<clipPath id="clip0">
<rect width="58" height="58" fill="white" transform="translate(83.25)"/>
</clipPath>
</defs>
</svg>
